<svg width="1440" height="5113" viewBox="0 0 1440 5113" fill="none" xmlns="http://www.w3.org/2000/svg">
<path d="M45.4743 518.5C76.9743 436.167 109.374 274.2 -13.0257 285C-166.026 298.5 -7.0257 463 112.474 354.5C231.974 246 198.474 18 148.474 1" stroke="#49AD09"/>
<path d="M1300.47 3635.5C1331.97 3553.17 1364.37 3391.2 1241.97 3402C1088.97 3415.5 1247.97 3580 1367.47 3471.5C1486.97 3363 1453.47 3135 1403.47 3118" stroke="#313131"/>
<path d="M1391.82 822.519C1360.71 819.85 1331.91 804.994 1311.71 781.199L1492.82 628.705C1512.83 652.67 1522.56 683.573 1519.89 714.689C1517.21 745.971 1502.21 774.906 1478.19 795.128C1454.17 815.35 1423.1 825.203 1391.82 822.519Z" stroke="#49AD09"/>
<path d="M28.6301 1848.52C59.7463 1845.85 88.5399 1830.99 108.746 1807.2L-72.3691 1654.71C-92.3743 1678.67 -102.109 1709.57 -99.4391 1740.69C-96.7552 1771.97 -81.7545 1800.91 -57.7369 1821.13C-33.7192 1841.35 -2.65209 1851.2 28.6301 1848.52Z" stroke="#313131"/>
<rect x="1414.18" y="5017.68" width="69" height="69" transform="rotate(30 1414.18 5017.68)" stroke="#313131"/>
<rect x="28.6737" y="4187.68" width="97.9816" height="97.9816" transform="rotate(30 28.6737 4187.68)" stroke="#313131"/>
</svg>
